<?xml version="1.0" standalone="no"?>
<svg xmlns:xlink="http://www.w3.org/1999/xlink" id="wave" style="transform:rotate(0deg); transition: 0.3s" viewBox="0 0 1440 180" version="1.1" xmlns="http://www.w3.org/2000/svg"><defs><linearGradient id="sw-gradient-0" x1="0" x2="0" y1="1" y2="0"><stop stop-color="rgba(255, 225, 163, 1)" offset="0%"/><stop stop-color="rgba(255, 248, 220, 1)" offset="100%"/></linearGradient></defs><path style="transform:translate(0, 0px); opacity:1" fill="url(#sw-gradient-0)" d="M0,54L26.7,54C53.3,54,107,54,160,48C213.3,42,267,30,320,24C373.3,18,427,18,480,27C533.3,36,587,54,640,75C693.3,96,747,120,800,114C853.3,108,907,72,960,63C1013.3,54,1067,72,1120,75C1173.3,78,1227,66,1280,75C1333.3,84,1387,114,1440,117C1493.3,120,1547,96,1600,75C1653.3,54,1707,36,1760,33C1813.3,30,1867,42,1920,39C1973.3,36,2027,18,2080,18C2133.3,18,2187,36,2240,48C2293.3,60,2347,66,2400,78C2453.3,90,2507,108,2560,120C2613.3,132,2667,138,2720,138C2773.3,138,2827,132,2880,126C2933.3,120,2987,114,3040,117C3093.3,120,3147,132,3200,129C3253.3,126,3307,108,3360,99C3413.3,90,3467,90,3520,102C3573.3,114,3627,138,3680,141C3733.3,144,3787,126,3813,117L3840,108L3840,180L3813.3,180C3786.7,180,3733,180,3680,180C3626.7,180,3573,180,3520,180C3466.7,180,3413,180,3360,180C3306.7,180,3253,180,3200,180C3146.7,180,3093,180,3040,180C2986.7,180,2933,180,2880,180C2826.7,180,2773,180,2720,180C2666.7,180,2613,180,2560,180C2506.7,180,2453,180,2400,180C2346.7,180,2293,180,2240,180C2186.7,180,2133,180,2080,180C2026.7,180,1973,180,1920,180C1866.7,180,1813,180,1760,180C1706.7,180,1653,180,1600,180C1546.7,180,1493,180,1440,180C1386.7,180,1333,180,1280,180C1226.7,180,1173,180,1120,180C1066.7,180,1013,180,960,180C906.7,180,853,180,800,180C746.7,180,693,180,640,180C586.7,180,533,180,480,180C426.7,180,373,180,320,180C266.7,180,213,180,160,180C106.7,180,53,180,27,180L0,180Z"/></svg>