<?xml version="1.0" standalone="no"?>
<svg xmlns:xlink="http://www.w3.org/1999/xlink" id="wave" style="transform:rotate(180deg); transition: 0.3s" viewBox="0 0 1440 490" version="1.1" xmlns="http://www.w3.org/2000/svg"><defs><linearGradient id="sw-gradient-0" x1="0" x2="0" y1="1" y2="0"><stop stop-color="rgba(255, 225, 163, 1)" offset="0%"/><stop stop-color="rgba(255, 179, 11, 1)" offset="100%"/></linearGradient></defs><path style="transform:translate(0, 0px); opacity:1" fill="url(#sw-gradient-0)" d="M0,294L26.7,261.3C53.3,229,107,163,160,138.8C213.3,114,267,131,320,179.7C373.3,229,427,310,480,318.5C533.3,327,587,261,640,245C693.3,229,747,261,800,236.8C853.3,212,907,131,960,122.5C1013.3,114,1067,180,1120,196C1173.3,212,1227,180,1280,187.8C1333.3,196,1387,245,1440,294C1493.3,343,1547,392,1600,383.8C1653.3,376,1707,310,1760,269.5C1813.3,229,1867,212,1920,179.7C1973.3,147,2027,98,2080,89.8C2133.3,82,2187,114,2240,122.5C2293.3,131,2347,114,2400,130.7C2453.3,147,2507,196,2560,220.5C2613.3,245,2667,245,2720,220.5C2773.3,196,2827,147,2880,122.5C2933.3,98,2987,98,3040,122.5C3093.3,147,3147,196,3200,212.3C3253.3,229,3307,212,3360,171.5C3413.3,131,3467,65,3520,106.2C3573.3,147,3627,294,3680,302.2C3733.3,310,3787,180,3813,114.3L3840,49L3840,490L3813.3,490C3786.7,490,3733,490,3680,490C3626.7,490,3573,490,3520,490C3466.7,490,3413,490,3360,490C3306.7,490,3253,490,3200,490C3146.7,490,3093,490,3040,490C2986.7,490,2933,490,2880,490C2826.7,490,2773,490,2720,490C2666.7,490,2613,490,2560,490C2506.7,490,2453,490,2400,490C2346.7,490,2293,490,2240,490C2186.7,490,2133,490,2080,490C2026.7,490,1973,490,1920,490C1866.7,490,1813,490,1760,490C1706.7,490,1653,490,1600,490C1546.7,490,1493,490,1440,490C1386.7,490,1333,490,1280,490C1226.7,490,1173,490,1120,490C1066.7,490,1013,490,960,490C906.7,490,853,490,800,490C746.7,490,693,490,640,490C586.7,490,533,490,480,490C426.7,490,373,490,320,490C266.7,490,213,490,160,490C106.7,490,53,490,27,490L0,490Z"/></svg>