<?xml version="1.0" standalone="no"?>
<!DOCTYPE svg PUBLIC "-//W3C//DTD SVG 20010904//EN"
 "http://www.w3.org/TR/2001/REC-SVG-20010904/DTD/svg10.dtd">
<svg version="1.0" xmlns="http://www.w3.org/2000/svg"
 width="2006.000000pt" height="1676.000000pt" viewBox="0 0 2006.000000 1676.000000"
 preserveAspectRatio="xMidYMid meet">
<metadata>
Created by potrace 1.16, written by Peter Selinger 2001-2019
</metadata>
<g transform="translate(0.000000,1676.000000) scale(0.100000,-0.100000)"
fill="#000000" stroke="none">
<path d="M725 16733 c-374 -79 -665 -398 -715 -783 -8 -61 -10 -2195 -8 -7630
l3 -7545 22 -77 c96 -336 315 -563 640 -665 l88 -28 9270 0 9270 0 78 23 c164
47 297 125 410 239 85 87 130 148 178 248 52 106 77 197 89 325 8 73 10 2378
8 7615 l-3 7510 -23 84 c-89 331 -328 578 -657 678 -58 17 -389 18 -9320 20
-8182 1 -9268 0 -9330 -14z m18560 -297 c224 -68 392 -237 452 -457 17 -61 18
-440 18 -7604 0 -7284 -1 -7542 -18 -7605 -32 -111 -83 -197 -172 -286 -87
-88 -177 -140 -290 -169 -53 -13 -1072 -15 -9245 -15 -8235 0 -9192 2 -9245
15 -140 36 -271 122 -352 229 -55 73 -74 110 -104 201 l-24 70 -3 7525 c-2
6843 -1 7532 13 7605 54 268 278 476 544 504 42 5 4191 8 9221 7 8825 -1 9147
-2 9205 -20z"/>
<path d="M13657 12919 c3 -1773 6 -3225 7 -3226 0 0 93 -6 206 -13 877 -48
1753 -167 3225 -436 286 -52 705 -129 930 -170 444 -81 1133 -198 1231 -209
l61 -7 7 178 c7 189 18 337 62 834 35 391 40 884 11 1065 -23 146 -61 283
-104 376 l-34 76 -177 6 c-296 11 -563 40 -1287 141 -360 51 -631 83 -782 92
l-102 7 -3 -344 -3 -344 -27 -57 c-79 -169 -294 -261 -463 -197 -82 31 -182
130 -216 214 -23 59 -24 68 -27 405 -5 463 18 779 63 873 42 89 141 164 255
193 143 36 632 -5 1528 -131 545 -76 790 -101 1105 -112 l197 -6 0 1926 0
1927 -347 0 c-526 0 -1059 16 -2478 75 -1388 57 -1752 69 -2442 81 l-401 7 5
-3224z m2936 2380 c106 -39 212 -154 237 -257 8 -36 9 -70 1 -128 -44 -333
-40 -856 10 -1164 17 -106 19 -134 9 -190 -23 -132 -114 -247 -228 -290 -47
-18 -73 -21 -143 -18 -112 5 -194 43 -267 123 -56 61 -74 105 -96 240 -44 263
-51 364 -51 725 0 569 28 745 140 869 68 75 206 126 305 113 19 -3 57 -13 83
-23z"/>
<path d="M9830 16040 c-338 -30 -1090 -54 -1745 -54 -559 -1 -581 -2 -620 -21
-46 -23 -45 -19 -89 -301 -73 -462 -124 -978 -158 -1604 -17 -312 -17 -1790 0
-2230 7 -179 26 -660 42 -1070 40 -1006 50 -1375 53 -1903 l2 -447 30 6 c17 3
165 39 330 79 381 94 727 189 1507 414 722 209 958 275 1303 365 880 230 1656
367 2333 412 l102 7 0 2595 0 2595 -317 -7 c-512 -11 -933 -30 -1488 -67 -352
-23 -1076 -77 -1122 -83 l-33 -5 0 665 0 664 -22 -1 c-13 -1 -61 -5 -108 -9z
m314 -2293 c107 -49 195 -166 215 -287 5 -30 12 -269 15 -530 3 -261 12 -704
21 -985 8 -280 16 -681 17 -890 l3 -380 -28 -60 c-54 -116 -166 -200 -298
-225 -161 -31 -331 81 -393 258 -13 35 -17 147 -26 580 -5 295 -15 683 -20
862 -20 633 -29 1321 -18 1379 43 232 303 374 512 278z"/>
<path d="M750 15225 c0 -1950 32 -6720 45 -6733 12 -13 1787 -183 2255 -217
1339 -96 2388 -69 3317 86 70 11 129 22 131 24 1 1 -2 413 -8 916 -28 2490
-42 3614 -60 4704 -5 319 -14 882 -20 1250 -6 369 -13 680 -16 693 l-4 22
-513 0 c-281 0 -846 3 -1254 7 l-743 6 0 -3130 c0 -2215 -3 -3147 -11 -3188
-29 -160 -156 -279 -326 -307 -183 -31 -370 118 -404 320 -5 34 -9 1301 -9
3173 l0 3117 -272 6 c-150 3 -686 8 -1190 11 l-918 5 0 -765z"/>
<path d="M13667 7836 c-4 -627 -7 -2482 -7 -4123 l0 -2983 2830 0 2830 0 0
3705 0 3704 -32 6 c-18 3 -144 23 -279 45 -316 50 -777 132 -1554 275 -1510
278 -2223 387 -3000 459 -160 15 -577 43 -711 48 l-71 3 -6 -1139z m3022 -351
c74 -34 151 -112 189 -192 l27 -58 -1 -770 c0 -423 -9 -1269 -18 -1880 -9
-610 -20 -1389 -24 -1730 l-8 -620 -29 -58 c-38 -76 -126 -158 -202 -188 -88
-35 -209 -33 -284 4 -70 34 -152 119 -187 194 l-27 58 2 745 c1 410 9 1166 18
1680 8 514 18 1288 21 1720 6 859 6 860 65 952 50 78 131 135 229 163 74 20
154 13 229 -20z"/>
<path d="M10175 8490 c-184 -56 -1454 -421 -1705 -490 -310 -85 -767 -200
-982 -246 -71 -15 -132 -31 -138 -34 -17 -11 -30 -1044 -40 -3315 -5 -1199
-12 -2263 -15 -2365 -3 -102 -10 -401 -15 -665 -6 -264 -13 -522 -16 -572 l-6
-93 323 0 c178 0 502 5 719 12 256 7 1136 10 2505 9 l2110 -3 1 1144 c1 1342
18 2508 39 2788 8 107 18 273 22 369 l6 173 -44 -7 c-87 -13 -369 -85 -613
-155 -586 -168 -605 -170 -1231 -180 -544 -8 -626 -15 -648 -54 -21 -37 -20
-359 2 -726 14 -223 21 -460 21 -670 0 -390 14 -824 36 -1168 19 -281 17 -298
-38 -385 -76 -119 -243 -196 -381 -176 -163 24 -284 172 -307 374 -20 186 -30
448 -40 1055 -10 701 -15 847 -35 1105 -66 830 89 1196 558 1320 176 47 292
56 737 61 551 6 543 4 1079 150 391 107 628 162 716 167 60 3 60 3 108 63 95
117 132 230 131 399 -1 173 -45 321 -165 555 -32 63 -81 143 -109 177 -190
235 -508 297 -999 197 -163 -34 -332 -82 -711 -204 -410 -132 -691 -210 -755
-210 -13 0 -15 94 -15 810 l0 810 -22 -1 c-13 0 -50 -9 -83 -19z"/>
<path d="M780 6873 c-1 -511 -6 -1019 -12 -1163 -8 -168 -12 -971 -13 -2350
-1 -1152 -5 -2209 -9 -2348 l-9 -252 564 0 c310 0 735 -4 944 -10 209 -5 520
-12 690 -16 l310 -6 0 103 c1 57 8 174 18 259 37 339 42 462 41 1025 0 620 -5
728 -79 1760 -54 757 -72 1051 -85 1395 -12 330 -13 774 0 859 18 130 98 238
218 294 59 28 78 32 152 32 76 0 92 -3 151 -32 80 -40 140 -102 180 -187 l29
-62 4 -464 c5 -559 22 -887 91 -1815 36 -479 63 -920 76 -1240 15 -356 6
-1089 -15 -1350 -20 -234 -52 -493 -66 -529 -5 -15 -10 -32 -10 -37 0 -5 475
-9 1233 -9 l1232 0 1 1337 c1 1247 9 2013 34 3298 18 917 39 1904 46 2109 l6
199 -27 -7 c-57 -14 -417 -66 -595 -85 -464 -51 -579 -56 -1280 -55 -843 0
-1102 15 -2570 149 -760 69 -1174 105 -1221 105 l-29 0 0 -907z"/>
</g>
</svg>
