<svg width="2203" height="2086" viewBox="0 0 2203 2086" fill="none" xmlns="http://www.w3.org/2000/svg">
<path d="M942.255 1884.9C1462.65 1884.9 1884.51 1462.95 1884.51 942.448C1884.51 421.948 1462.65 0 942.255 0C421.862 0 0 421.948 0 942.448C0 1462.95 421.862 1884.9 942.255 1884.9Z" fill="#90EE90"/>
<path d="M1413.47 1607.46C1379.88 1644.2 1348.43 1682.92 1311.3 1716.34C1297.1 1729.12 1283.34 1742.38 1269.38 1755.41C1263.27 1762.52 1256.14 1764.51 1247.65 1759.79C1210.26 1726.87 1183.28 1685.92 1158.43 1643.34C1142.94 1622.7 1130.83 1599.37 1109.28 1583.58C1097.06 1574.64 1085.05 1565.88 1069.29 1564.32C1064.71 1563.86 1059.62 1563.03 1057.85 1557.37C1083.2 1543.84 1109.84 1532.5 1131.81 1513.34C1141.3 1496.47 1157.41 1488.8 1174.48 1482.44C1206.65 1453.91 1237.33 1423.87 1259.79 1399.64C1235.21 1423.45 1206.69 1457.54 1170.42 1483.54C1072.59 1504.71 976.422 1503.83 883.718 1461.21C863.727 1452.02 847.279 1437.21 831.707 1421.74C822.18 1406.15 808.15 1393.01 804.898 1373.87C779.611 1324.79 773.962 1273.89 790.723 1220.87C792.14 1216.4 792.224 1211.5 792.932 1206.81C794.829 1187.59 799.582 1170.26 821.179 1164.05C829.101 1164.86 835 1169.8 841.025 1174.24C876.943 1200.72 916.28 1219.05 960.912 1224.93C1006.25 1229.89 1051.28 1230.35 1095.35 1216.24C1104.75 1213.99 1114.13 1211.48 1123.91 1213.63C1132.69 1218.03 1141.73 1218.39 1151.64 1218.3C1234.48 1217.51 1317.32 1217.49 1400.17 1218.14C1412.78 1218.24 1424.56 1221.78 1435.17 1228.56C1443.03 1233.59 1450.99 1236.53 1460.29 1233.25C1554.12 1273.74 1625.85 1340.74 1685.47 1421.95C1735.94 1490.69 1773.61 1566.38 1803.92 1645.86C1810.51 1650.99 1804.42 1655.16 1802.92 1659.69C1766.85 1685.63 1727.2 1704.02 1684.49 1716.05C1677.34 1718.07 1670.19 1720.22 1663.46 1723.43C1627.08 1739.76 1590.12 1755.21 1566.19 1789.82C1564.6 1792.09 1562.16 1793.3 1559.2 1792.11C1545.34 1721.72 1526.79 1652.85 1493.24 1588.88C1485.03 1573.2 1476.11 1557.9 1467.5 1542.43C1460.77 1535.25 1462.5 1528.04 1466.31 1519.91C1480.78 1488.98 1493.29 1457.31 1498.33 1423.26C1505.75 1373.22 1506.75 1323.97 1478.51 1278.83C1509.53 1329.75 1505.94 1384.31 1495.08 1439.55C1488.3 1474.03 1472.69 1505.23 1458.2 1536.84C1449.22 1564.15 1434.81 1588 1413.47 1607.46Z" fill="#1300F3"/>
<path d="M1121.7 1217.55C1113.82 1218.84 1105.92 1220.14 1098.04 1221.41C1062.25 1227.83 1026.37 1232.46 989.973 1227.27C913.925 1222.6 843.527 1173.62 830.79 1088.72C824.056 1054.23 830.894 1020.93 839.462 987.757C841.963 983.003 844.507 978.228 845.174 972.744C847.863 965.822 849.301 957.94 858.14 955.688C868.209 956.502 872.879 964.842 878.82 971.055C912.612 1006.4 952.345 1029.69 1000.92 1040.18C1018.39 1043.95 1033.79 1044.14 1050.32 1040.65C1084.72 1034.15 1119.28 1029.1 1154.07 1025.64C1165.5 1024.52 1177.28 1021.64 1188.26 1028.08C1232.37 1030.6 1276.3 1030.04 1318.49 1014.88C1355.24 1001.68 1380.76 974.642 1402.86 943.657C1408.82 935.296 1412.17 922.723 1426.7 924.934C1442.88 938.424 1435.21 956.314 1435.56 972.765C1435.77 982.148 1428.73 993.741 1443.19 998.995C1449.3 999.141 1456.64 997.139 1461.29 999.808C1483.03 1012.3 1492.7 998.37 1502.98 983.065C1506.96 977.144 1512.05 967.677 1519.3 969.721C1529.23 972.515 1524.76 983.586 1524.89 991.134C1525.14 1005.98 1519.05 1020.43 1521.41 1035.53C1509.46 1044.14 1501.5 1053.89 1505.69 1070.45C1510.36 1088.97 1499.85 1106.23 1497.81 1124.37C1496.41 1136.76 1503.75 1144.32 1503.86 1154.6C1503.33 1158.09 1501.71 1160.88 1498.71 1162.8C1460.12 1171.35 1420.57 1172.2 1381.57 1177.54C1356.74 1180.94 1331.87 1183.88 1307.44 1189.55C1295.45 1191.24 1283.45 1193.07 1272.04 1186.94C1265.14 1172.68 1279.59 1174.35 1284.66 1172.76C1321.74 1161.25 1358.47 1148.6 1396.04 1138.65C1398.71 1137.94 1401.25 1137.01 1403.75 1135.96C1406.73 1135 1409.8 1134.86 1412.88 1135.02C1414.22 1135.25 1415.84 1135.38 1416.68 1136.34C1429.46 1151 1436.4 1145.3 1440.5 1129.56C1443.69 1125.93 1447.65 1122.7 1451.97 1121.22C1465.96 1116.4 1469.44 1107.67 1472.34 1092.78C1475.23 1077.89 1471.63 1061.94 1479.26 1047.68C1482.13 1042.3 1479.38 1035.65 1476.55 1030.15C1477.92 1049.39 1478.4 1068.7 1470.71 1087.15C1470.19 1088.38 1468.48 1089.53 1468.63 1090.59C1474 1128.06 1441.15 1122.79 1421.76 1132.23C1417.05 1134.52 1411.21 1134.8 1405.73 1135.21C1365.83 1147.14 1326.1 1159.63 1286.28 1171.78C1276.44 1174.79 1266.83 1178.21 1258.77 1184.94C1222.83 1199.45 1185.37 1208.82 1147.74 1217.59C1139.15 1219.64 1130.35 1220.49 1121.7 1217.55Z" fill="#F1A99E"/>
<path d="M846.924 986.151C836.939 1020.39 833.624 1055.27 836.543 1090.8C832.916 1105.98 826.682 1118.49 808.296 1118.72C734.291 1078.89 712.111 1018.45 745.132 941.385C770.835 881.356 785.803 820.806 781.237 754.063C775.234 666.303 816.989 618.784 906.962 599.893C925.724 595.953 944.819 593.617 963.455 589.197C1008.61 578.48 1042.21 552.333 1064.56 511.57C1074.42 493.576 1083.47 474.915 1095.29 458.255C1116.63 428.147 1145.82 410.695 1183.88 410.841C1190.89 415.428 1193.64 422.788 1192.99 430.19C1189.66 468.993 1181.09 506.253 1158.04 538.759C1151.84 542.909 1144.82 540.782 1138.11 541.345C1119.66 542.888 1110.67 557.942 1123.08 570.702C1144.69 592.95 1135.98 612.633 1123.83 633.651C1112.86 652.583 1102.17 671.703 1087.16 687.925C1039.15 711.34 1002.46 749.747 961.558 782.67C912.465 822.182 861.121 858.358 803.376 884.546C788.304 889.488 788.951 899.976 793.203 912.236C799.916 931.543 814.571 944.596 828.246 958.607C836.001 966.572 846.924 972.786 846.924 986.151Z" fill="black"/>
<path d="M801.105 879.667C881.05 841.74 949.364 787.257 1015.03 729.042C1035.71 710.714 1058.39 695.785 1084.03 685.423C1106.77 675.769 1129.06 681.315 1138.54 704.438C1151.45 735.798 1168.31 763.717 1191.45 788.133C1187.26 868.074 1185.01 948.036 1188.24 1028.08C1150.01 1033.36 1111.78 1038.63 1073.55 1043.89C1064.83 1045.1 1056.1 1046.24 1047.38 1047.43C986.158 1049.12 941.046 1019.78 904.232 973.787C891.828 958.295 879.362 942.74 864.624 929.271C849.802 914.487 833.729 901.393 814.822 892.094C810.048 888.216 800.188 889.821 801.105 879.667Z" fill="#F54C42"/>
<path d="M1175.44 1484.11C1160.89 1493.86 1146.34 1503.6 1131.81 1513.36C1095.83 1517.78 1059.93 1522.47 1023.45 1522.03C979.07 1521.51 936.001 1515.24 895.226 1497.45C880.905 1491.2 875.005 1493.61 871.753 1509.5C843.048 1650.35 813.717 1791.05 784.594 1931.81C776.131 1972.7 767.938 2013.65 759.141 2054.45C757.703 2061.11 758.37 2072.72 748.322 2071.03C738.211 2069.34 742.339 2058.48 743.465 2051.79C755.889 1977.54 768.814 1903.35 781.53 1829.14C801.292 1713.8 820.909 1598.43 840.838 1483.13C842.255 1474.97 841.797 1468.49 834.772 1463.09C736.523 1387.51 696.394 1280.79 675.547 1164.05C656.994 1060.05 658.432 955.459 668.147 850.747C670.669 823.475 673.713 796.244 676.923 769.055C677.799 761.653 674.984 748.934 686.95 750.644C697.373 752.124 693.558 764.197 692.996 771.807C687.805 841.532 683.99 911.339 686.408 981.252C689.368 1066.93 696.581 1152.12 722.743 1234.61C739.9 1288.71 763.665 1339.11 800.646 1382.69C814.446 1390.61 820.742 1406.23 833.729 1414.99C884.553 1466.28 949.197 1483.27 1018.2 1488.17C1070.94 1491.9 1123.41 1486.02 1175.78 1480.33C1176.84 1481.27 1177.17 1482.13 1176.71 1482.94C1176.26 1483.71 1175.86 1484.11 1175.44 1484.11Z" fill="#FEBF2F"/>
<path d="M1413.47 1607.46C1427.33 1584.31 1441.17 1561.17 1455.03 1538.03C1456.6 1536.57 1458.14 1536.65 1459.66 1538.09C1459.52 1696.39 1459.47 1854.7 1459.06 2013C1459.02 2025.83 1463.04 2031.08 1476.44 2032.06C1505.86 2034.21 1534.75 2040.03 1562.37 2050.85C1567.85 2052.99 1575.46 2054.87 1573.15 2063.19C1571.32 2069.76 1564.62 2069.01 1559.22 2069.01C1476.32 2069.05 1393.41 2069.05 1310.51 2068.99C1305.17 2068.99 1298.69 2069.74 1297.39 2062.36C1296.12 2055.06 1302.44 2053.29 1307.38 2051.37C1335.67 2040.42 1365.14 2034.02 1395.29 2032.08C1409.15 2031.18 1414.11 2026.81 1414.05 2012.46C1413.49 1877.47 1413.57 1742.47 1413.47 1607.46Z" fill="#FAFAED"/>
<path d="M1191.47 788.154C1163.66 776.665 1151.26 752.728 1142.13 726.415C1129.85 691.052 1121.22 684.755 1084.05 685.443C1100.79 659.776 1118.34 634.651 1130.02 605.961C1133.27 597.975 1133.9 592.867 1126.6 586.757C1113.97 576.207 1103.71 563.342 1114.2 546.14C1124.14 529.835 1139.75 534.068 1154.6 538.03C1162.23 536.737 1169.04 542.909 1176.78 540.365C1192.74 534.151 1208.15 526.833 1222.89 518.013C1228.58 514.593 1234.35 510.757 1242 513.384C1259.12 519.243 1264.54 515.678 1263.66 497.684C1263 484.277 1264.33 473.101 1278.76 467.93C1284.3 483.234 1289.7 498.601 1295.43 513.843C1297.81 520.14 1299.52 527.583 1303.98 532.025C1312.24 540.261 1313.24 546.224 1308.9 558.192C1302.79 575.081 1307.92 594.43 1303.48 612.696C1297.29 638.175 1283.91 648.913 1258.01 643.763C1247.15 641.595 1236.5 640.656 1225.58 640.886C1213.97 640.156 1203.96 634.422 1191.62 629.001C1191.93 645.89 1204.75 652.541 1212.59 662.237C1198.81 703.104 1196.33 745.827 1191.47 788.154Z" fill="#F1A99E"/>
<path d="M1270.13 1184.11C1282.51 1184 1294.91 1183.9 1307.3 1183.79C1370.61 1177.08 1434 1173.24 1497.66 1177.87C1505.65 1177.66 1513.84 1176.66 1519.89 1183.75C1586.26 1183.98 1652.66 1184.21 1719.03 1184.5C1725.85 1184.55 1732.92 1184.09 1739.42 1185.71C1748.84 1188.09 1754.87 1194.8 1754.66 1205.04C1754.47 1214.36 1748.88 1220.64 1740.11 1222.64C1732.89 1224.29 1725.22 1224.49 1717.76 1224.49C1638.36 1224.62 1558.95 1224.45 1479.57 1224.79C1472.57 1224.81 1461.98 1219.85 1460.29 1233.27C1460.25 1250.27 1453.53 1252.46 1441.44 1241.51C1426.91 1228.33 1410.07 1224.43 1390.56 1224.6C1310.55 1225.33 1230.52 1224.91 1150.51 1224.91C1140.27 1224.91 1129.79 1225.93 1121.68 1217.55C1167 1205.02 1212.34 1192.49 1257.66 1179.94C1263.04 1177.77 1266.79 1180.29 1270.13 1184.11Z" fill="#FAFAED"/>
<path d="M1174.98 1905.58C1176.44 1908.65 1177.88 1911.69 1179.34 1914.75C1175.92 1925.28 1168.17 1918.9 1162.85 1918.15C1154.2 1916.92 1145.47 1916.96 1141.78 1915.73C1134.15 1915.34 1136.44 1918.59 1135.96 1915.88C1135.9 1915.51 1136.56 1915.32 1137.94 1915.48C1154.45 1917.36 1172.13 1915.96 1183.99 1931.39C1186.6 1936.04 1187.74 1940.78 1184.99 1945.78C1174.84 1952.7 1163.75 1944.78 1154.76 1947.76C1167.54 1947.84 1181.59 1948.32 1190.74 1961.86C1196.62 1983.98 1197.85 2005.96 1192.27 2028.58C1187.53 2047.82 1181.76 2052.1 1164.33 2043.17C1128.29 2024.76 1101.81 1997.03 1088.03 1958.71C1080.97 1939.09 1073.42 1920.93 1055.16 1908.42C1045.47 1901.76 1039.57 1890.09 1038.94 1878.47C1037.31 1848.24 1024.1 1826.6 996.518 1813.9C988.68 1802.02 1000.29 1800.03 1006.07 1795.05C1010.19 1793.8 1015.26 1793.59 1017.53 1796.91C1031.04 1816.49 1052.05 1818.65 1069.42 1821.18C1052.3 1813.84 1019.91 1823.05 1020.32 1785.15C1041.17 1767.92 1059.58 1747.26 1086.37 1738.42C1096.39 1743.34 1099.71 1752.64 1099.04 1762.42C1097 1792.61 1110.01 1815.21 1132.33 1833.9C1137.54 1838.25 1142.25 1843.38 1145.4 1849.62C1144.96 1862.32 1162.04 1869.65 1155.99 1884.06C1144.28 1889.34 1131.81 1883.73 1119.85 1887.04C1133.65 1884.33 1146.82 1887.38 1159.72 1891.44C1166.71 1893.63 1174.32 1896.11 1174.98 1905.58Z" fill="#FAFAED"/>
<path d="M1683.51 1004.65C1701.73 868.47 1755.33 806.085 1882.63 774.059C1894.72 771.015 1901.38 768.304 1900.4 753.417C1899.5 739.801 1909.51 731.211 1923.49 731.482C1935.6 731.732 1945.74 739.926 1945.05 751.332C1943.9 769.889 1953.3 772.516 1968.04 775.122C2010.32 782.587 2046.47 802.791 2077.61 832.149C2008.21 918.72 1918.32 975.997 1815.82 1015.45C1783.66 1020.51 1751.34 1018.59 1719.12 1017.91C1706 1017.66 1692.52 1016.66 1683.51 1004.65Z" fill="#FECB2D"/>
<path d="M1057.87 1557.4C1086.68 1555.71 1107.15 1571.55 1125.77 1590.46C1140.71 1605.62 1153.1 1622.87 1163.37 1641.57C1168.73 1658.29 1151.64 1663.09 1146.17 1674.08C1138.69 1682.52 1132.58 1694.01 1118.01 1687.21C1090.89 1667.84 1064.44 1647.78 1047.72 1617.84C1040.23 1604.43 1035.88 1590.4 1039.86 1574.97C1042.28 1565.61 1048.74 1560.04 1057.87 1557.4Z" fill="#110021"/>
<path d="M1825.81 1004.37C1885.2 971.034 1948.28 943.637 1999.21 896.723C2016.84 880.48 2034.75 864.404 2051.09 846.931C2058.81 838.675 2064.98 830.459 2077.59 832.169C2130.66 877.394 2153.55 936.339 2155.85 1004.62C2143.59 1019.57 2126.12 1018.97 2109.53 1019.09C2030.35 1019.72 1951.18 1019.74 1872 1019.07C1855.41 1018.95 1837.92 1019.57 1825.81 1004.37Z" fill="#FEB912"/>
<path d="M1559.18 1792.13C1571.69 1766.09 1593.54 1750.18 1618.57 1738C1632.71 1731.14 1647.24 1725.12 1661.6 1718.72C1679.55 1715.3 1681.2 1732.33 1689.58 1740.94C1693.31 1751.16 1706.98 1759.94 1694.33 1772.62C1671.48 1790.09 1648.61 1807.42 1620.51 1816.07C1608.57 1819.74 1596.56 1822.16 1584.13 1820.43C1567.98 1818.22 1557.08 1810.77 1559.18 1792.13Z" fill="#110021"/>
<path d="M1825.81 1004.37C1935.83 1004.46 2045.86 1004.54 2155.87 1004.6C2158.24 1004.81 2160.77 1004.56 2163 1005.29C2176.48 1009.71 2201.19 995.972 2202 1016.47C2202.67 1032.98 2177.65 1022.45 2165.21 1027.41C2119.09 1045.74 2071.38 1055.54 2021.76 1056.21C2009.38 1056.23 1996.98 1056.25 1984.57 1056.25C1946.21 1068.99 1907.88 1068.09 1869.54 1056.19C1856.97 1056.19 1844.42 1056.19 1831.85 1056.21C1771 1060.69 1715.86 1032.13 1656.83 1026.12C1650.3 1025.45 1644.07 1023.1 1643.63 1016.59C1643 1006.98 1651.03 1006.13 1658.45 1005.81C1666.79 1005.48 1675.13 1005.04 1683.47 1004.65C1730.96 1004.56 1778.38 1004.48 1825.81 1004.37Z" fill="#F54C42"/>
<path d="M1986.41 1789.44C2016.97 1792.72 2044 1805.23 2069.6 1821.43C2080.38 1828.27 2081.49 1836.34 2074.13 1847.14C2060.95 1866.51 2042.78 1880.12 2022.28 1889.4C1949.55 1922.34 1876.15 1953.83 1803.15 1986.17C1795.18 1989.69 1789.24 1991.76 1785.51 1981.37C1767.42 1931.31 1749.15 1881.31 1731.14 1831.23C1730.29 1828.85 1731.29 1825.83 1731.41 1823.1C1735.94 1820.24 1739.11 1822.93 1742.3 1825.68C1752.57 1841.44 1755.26 1860.17 1762.2 1877.24C1764.68 1883.33 1765.08 1892.05 1773.32 1892.99C1781.88 1893.99 1786.36 1886.59 1790.7 1880.43C1797 1871.45 1800.33 1860.67 1807.46 1852.22C1812.55 1846.22 1819.3 1840.4 1826.85 1845.38C1835.35 1850.99 1827.97 1857.73 1824.51 1862.86C1812.4 1880.89 1804.5 1902.54 1791.83 1907.89C1805.25 1896.49 1830.06 1896.22 1855.78 1900.83C1866.35 1902.72 1876.63 1900.62 1885.07 1894.09C1902.4 1880.68 1922.49 1878.6 1943.28 1877.49C1976.19 1875.74 2006.79 1867.26 2031.52 1843.78C2048.34 1827.81 2046.9 1821.95 2024.97 1812.5C2011.86 1806.85 1996.37 1807.75 1984.86 1797.78C1983.65 1794.68 1983.82 1791.84 1986.41 1789.44Z" fill="#AD8F9C"/>
<path d="M1142.36 1852.39C1133.02 1843.45 1123.79 1834.4 1114.3 1825.6C1099.42 1811.77 1092.45 1794.86 1093.2 1774.55C1093.66 1762.29 1094.41 1749.81 1084.47 1740.11C1082.3 1737.75 1082.7 1735.29 1084.16 1732.77C1088.58 1728.16 1092.97 1723.58 1097.39 1718.97C1103.58 1716.86 1108.03 1720.26 1111.74 1724.26C1135.75 1750.14 1164.16 1771.36 1188.6 1796.78C1192.81 1801.16 1197.54 1805.25 1198.14 1811.92C1197.96 1813.96 1197.16 1815.69 1195.66 1817.11C1180.38 1828.6 1165.08 1840.09 1149.8 1851.58C1147.51 1853.56 1145.03 1853.85 1142.36 1852.39Z" fill="#F54C42"/>
<path d="M1738.61 1826.58C1736.21 1825.41 1733.81 1824.24 1731.41 1823.1C1728.89 1817.49 1726.35 1811.88 1723.81 1806.29C1736.29 1789.19 1756.62 1783.35 1773.34 1772.47C1788.55 1762.57 1805.65 1755.58 1821.37 1746.2C1829.31 1741.47 1838.54 1735.75 1845.82 1747.95C1851.78 1765.57 1857.76 1783.17 1863.73 1800.79C1864.69 1803 1864.75 1805.23 1863.93 1807.5C1838.71 1832.31 1810.23 1847.22 1773.71 1836.23C1762.08 1832.73 1748.8 1835.23 1738.61 1826.58Z" fill="#F54C42"/>
<path d="M1529.66 1035.48C1534 1017.55 1538.11 999.558 1542.73 981.71C1547.61 962.902 1553.95 946.514 1536.96 927.394C1521.01 909.462 1541.65 858.858 1564.48 849.788C1578.3 844.304 1593.12 852.644 1599.42 869.492C1610.46 898.974 1599.21 929.896 1571.11 945.492C1566.25 948.182 1564.1 951.33 1563.27 956.314C1558.58 983.878 1553.8 1011.44 1549.05 1039.01C1540.92 1046.95 1534.52 1045.43 1529.66 1035.48Z" fill="#8A0900"/>
<path d="M1694.33 1772.64C1699.67 1760.38 1687.76 1753.68 1685.07 1744.03C1684.18 1733.98 1692.83 1732.14 1698.94 1728.77C1735.35 1708.56 1768.81 1684.23 1800.35 1657.12C1801.56 1653.37 1802.75 1649.62 1803.94 1645.89C1815.36 1665.96 1822.85 1687.63 1829.68 1709.56C1815.49 1727.1 1725.95 1776.49 1706.73 1777.39C1702.6 1775.81 1698.46 1774.22 1694.33 1772.64Z" fill="#F0A99F"/>
<path d="M808.296 1118.72C819.845 1111.55 827.725 1100.68 836.543 1090.78C854.909 1170.45 908.421 1210.02 986.137 1221.99C991.223 1225.12 998.644 1220.39 1005.11 1230.52C987.575 1231.65 972.211 1232.56 956.597 1229.94C903.001 1225.41 860.558 1196.85 819.157 1166.07C804.085 1162.99 790.202 1157.5 779.278 1146.14C788.284 1136.3 801.063 1130.46 808.296 1118.72Z" fill="#F54C42"/>
<path d="M1278.74 467.93C1274.67 477.897 1263.06 483.985 1271.13 499.644C1276.11 509.318 1265.04 522.183 1253.39 528.334C1251.32 529.418 1246.22 529.21 1245.8 528.209C1234.79 502.625 1224.58 525.957 1215.72 529.585C1202 535.194 1188.99 542.638 1174.69 547.037C1170.17 539.844 1174.09 533.901 1177.92 528.376C1198.23 499.123 1212.72 467.179 1222.62 433.026C1224.12 427.834 1225.66 422.434 1231.91 420.724C1254.35 429.669 1270.04 445.328 1278.74 467.93Z" fill="black"/>
<path d="M1195.66 1817.13C1195.89 1816.21 1196.16 1815.32 1196.46 1814.42C1197.91 1808.69 1201.67 1804.85 1206.63 1801.97C1209.94 1800.2 1213.32 1798.6 1217.16 1800.47C1228.48 1837.94 1229.37 1877.14 1235.92 1915.4C1243.05 1957.12 1247.55 1999.28 1253.16 2041.26C1253.62 2044.63 1254.12 2048.07 1254.01 2051.47C1253.82 2057.21 1257.14 2065.57 1248.88 2067.09C1238.73 2068.97 1239.27 2058.75 1238.21 2052.95C1227.93 1996.49 1218.28 1939.92 1208.23 1883.42C1204.34 1861.29 1199.87 1839.23 1195.66 1817.13Z" fill="#FECC34"/>
<path d="M1182.7 2068.3C1149.43 2087.48 1112.9 2085.73 1076.65 2084.02C1060.31 2083.25 1043.78 2081.33 1028.35 2074.99C1022.83 2072.72 1015.84 2070.45 1016.51 2062.69C1017.03 2056.56 1022.6 2053.91 1027.83 2051.93C1040.73 2047.03 1054.05 2044.11 1067.9 2043.65C1086.62 2038.82 1106.82 2047.89 1124.95 2037.63C1133.12 2035.38 1139.73 2039.46 1145.82 2043.7C1156.66 2051.24 1168.48 2056.04 1181.34 2058.62C1184.3 2061.46 1188.49 2064.17 1182.7 2068.3Z" fill="#110021"/>
<path d="M1443.21 999.037C1426.04 1008.75 1424.22 998.474 1426.68 985.442C1430.52 965.176 1432.87 945.138 1426.7 924.955C1429.18 909.317 1427.83 897.766 1414.59 883.816C1394.02 862.153 1406.36 834.275 1414.38 808.963C1421.43 820.41 1418.43 833.003 1419.41 845.055C1419.8 849.872 1419.62 855.856 1425.51 856.481C1433.25 857.315 1433.14 850.581 1433.79 845.118C1435.08 834.046 1432.39 822.432 1436.71 811.757C1438.75 811.715 1440.82 811.652 1442.86 811.611C1442.86 823.162 1442.73 834.734 1442.94 846.285C1443 850.143 1441.98 855.772 1447.3 856.377C1454.05 857.169 1454.05 850.914 1454.43 846.39C1455.41 834.588 1455.95 822.745 1456.83 808.379C1477.21 831.481 1476.53 873.12 1455.99 887.882C1444.74 895.972 1442.21 904.5 1442.55 916.865C1443.28 944.242 1443.05 971.639 1443.21 999.037Z" fill="#8A0900"/>
<path d="M1117.99 1687.19C1131.31 1688.25 1134.94 1676.02 1142.55 1669.26C1152.41 1664.38 1158.47 1670.99 1163.35 1677.37C1187.37 1708.77 1219.24 1731.44 1249.45 1756C1256.28 1762.36 1262.81 1757.96 1269.38 1755.41C1254.41 1767.88 1239.44 1780.35 1224.47 1792.8C1204.84 1785.9 1193.35 1768.47 1178.61 1755.66C1157.68 1737.5 1135.27 1719.97 1121.47 1694.8C1120.3 1692.28 1119.16 1689.73 1117.99 1687.19Z" fill="#EFA99F"/>
<path d="M1231.87 420.745C1223.41 467.638 1200.1 507.838 1174.67 547.058C1164.23 552.396 1161.04 541.616 1154.6 538.051C1167 512.154 1177.4 485.528 1183.61 457.421C1187.03 441.971 1187.72 426.395 1183.86 410.841C1202.83 399.769 1218.3 405.691 1231.87 420.745Z" fill="#1300F3"/>
<path d="M1130.43 2040.05C1109.96 2047.95 1088.8 2043.8 1067.9 2043.63C1082.53 2036.54 1098.64 2042.09 1117.2 2038.42C1096.33 2014.75 1077.17 1992.88 1057.89 1971.16C1022.47 1931.27 986.928 1891.49 951.531 1851.58C947.216 1846.72 939.815 1841.53 948.508 1834.79C993.286 1800.16 1035.75 1762.46 1084.22 1732.75C1084.32 1735.21 1084.43 1737.65 1084.53 1740.09C1064.21 1755.14 1043.9 1770.2 1023.6 1785.25C1021.99 1794.7 1013.72 1795.26 1006.92 1797.78C1004.81 1802.45 995.517 1802.06 998.248 1810.13C999.728 1815.34 995.725 1816.99 992.452 1819.09C991.222 1819.68 989.972 1820.22 988.804 1820.95C960.724 1838.59 960.557 1842.8 982.842 1866.51C1031.58 1918.34 1077.15 1973.03 1125.24 2025.45C1128.87 2029.43 1132.64 2033.79 1130.43 2040.05Z" fill="#9D7888"/>
<path d="M1121.47 1694.82C1155.85 1727.45 1192.43 1757.75 1224.49 1792.82C1222.05 1795.36 1219.6 1797.93 1217.18 1800.47C1213.63 1802.66 1210.09 1804.85 1206.55 1807.06C1200.37 1808.79 1195.96 1805.83 1192.06 1801.6C1167.88 1775.33 1139.09 1753.95 1114.53 1728.12C1110.07 1723.43 1102.9 1719.86 1105.17 1711.27C1110.57 1705.79 1116.01 1700.31 1121.47 1694.82Z" fill="#F54C42"/>
<path d="M1706.73 1777.39C1747.72 1754.79 1788.7 1732.19 1829.68 1709.56C1832.46 1716.97 1835.23 1724.37 1838 1731.77C1836.42 1736.38 1834.15 1740.4 1829.6 1742.82C1796.68 1760.38 1764.23 1778.75 1731.81 1797.22C1727.43 1799.7 1723.24 1801.39 1718.49 1798.49C1713.44 1792.11 1708.13 1785.86 1706.73 1777.39Z" fill="#F54C42"/>
<path d="M989.139 1814.9C992.161 1813.32 995.184 1811.73 998.207 1810.15C1026.25 1818.84 1041.53 1837.84 1043.17 1867.13C1044.26 1886.4 1052.2 1900.91 1068.63 1911.42C1082.32 1920.18 1085.68 1935.75 1090.83 1949.78C1105.11 1988.67 1129.35 2018.65 1166.46 2038.07C1180.63 2045.49 1186.14 2043.9 1188.74 2026.45C1191.93 2005.02 1189.12 1984.15 1188.66 1963.02C1193.2 1960.83 1195.56 1963.17 1197.12 1967.15C1201.77 2002.22 1203.98 2036.94 1182.72 2068.3C1181.68 2065.84 1180.61 2063.38 1179.57 2060.92C1161.37 2046.72 1138.48 2040.51 1121.91 2022.62C1101 2000.03 1084.66 1975.39 1074.19 1946.84C1069.56 1934.23 1063.35 1923.47 1052.57 1915.26C1039.36 1905.18 1031.23 1891.38 1030.75 1874.97C1030.04 1851.18 1020.28 1834.54 998.311 1825.03C993.954 1823.16 989.681 1820.53 989.139 1814.9Z" fill="#B095A4"/>
<path d="M1459.64 1538.11C1458.1 1538.09 1456.56 1538.07 1455.01 1538.05C1468.9 1500.47 1488.6 1465.11 1493.12 1424.12C1499.52 1366.15 1503.67 1309.19 1461.43 1260.88C1460.81 1260.15 1461.35 1258.4 1461.35 1257.06C1466.46 1253.54 1469.54 1257.63 1471.48 1260.61C1499.21 1302.96 1512.99 1348.26 1506.59 1399.93C1501.21 1443.41 1486.72 1483.38 1468.92 1522.6C1465.79 1529.5 1466.71 1535.73 1467.46 1542.42C1464.87 1540.99 1462.25 1539.55 1459.64 1538.11Z" fill="#FAFAED"/>
<path d="M1500.85 1151.62C1492.16 1144.53 1492.79 1137.13 1492.2 1125.56C1491.01 1101.6 1507.13 1080.38 1498.23 1055.35C1494.25 1044.18 1508.71 1036.73 1521.43 1035.55L1521.53 1035.63C1518.7 1051.89 1527.04 1055.63 1541.4 1054.69C1548.49 1054.23 1558.43 1054.46 1559.33 1064.05C1560.29 1074.29 1550.03 1073.83 1543.15 1075.73C1536.63 1077.52 1529.66 1077.44 1523.33 1080.38C1532.56 1088.07 1550.18 1075.77 1554.83 1093.87C1554.55 1095.1 1554.22 1096.31 1553.82 1097.49C1542.94 1108.88 1526.18 1100.79 1513.97 1108.84C1523.74 1116.72 1541.21 1104.25 1546.01 1122.45L1545.97 1122.47C1538.63 1136.38 1522.93 1130.12 1511.86 1135.94C1515.63 1144.51 1530.54 1138.84 1530 1151.35C1528.95 1152.77 1527.91 1154.19 1526.87 1155.6C1517.61 1157.9 1508.59 1159.04 1500.85 1151.62Z" fill="#C87891"/>
<path d="M1554.8 1093.89C1543.98 1085.34 1531.06 1091.55 1519.43 1088.86C1514.32 1087.67 1507.25 1087.32 1507 1080.73C1506.71 1073.45 1513.74 1073.87 1519.01 1073.01C1531.21 1071.08 1543.38 1068.95 1555.49 1064.92C1545.65 1058.84 1534.96 1061.57 1524.78 1060.69C1518.91 1060.17 1510.96 1062.82 1508.3 1056.06C1505.31 1048.54 1514.26 1046.99 1518.09 1042.82C1519.8 1040.95 1520.41 1038.07 1521.53 1035.65C1524.24 1035.59 1526.95 1035.55 1529.66 1035.48C1535.63 1039.36 1542.32 1039.28 1549.05 1039.01C1565.81 1052.87 1567.62 1070.22 1554.8 1093.89Z" fill="#F0A99F"/>
<path d="M779.279 1146.16C794.726 1148.54 807.734 1155.79 819.179 1166.11C805.775 1176.68 804.086 1194.82 792.933 1206.86C783.323 1199.39 774.005 1191.53 768.46 1180.42C761.143 1165.7 761.184 1152.98 779.279 1146.16Z" fill="#5E294B"/>
<path d="M1718.51 1798.51C1758.35 1776.26 1798.19 1754.02 1838.02 1731.77C1840.5 1737.23 1846.61 1740.9 1845.84 1747.93C1836.25 1740.17 1829.23 1748.35 1821.99 1752.27C1789.16 1770.03 1756.53 1788.23 1723.85 1806.27C1720.66 1804.64 1718.91 1802.04 1718.51 1798.51Z" fill="#DBEBF9"/>
<path d="M1105.13 1711.25C1136.98 1745.26 1172.27 1775.6 1206.52 1807.04C1203.15 1809.5 1199.81 1811.96 1196.46 1814.42C1166.46 1779.48 1129.58 1751.68 1097.39 1718.99C1099.98 1716.4 1102.56 1713.84 1105.13 1711.25Z" fill="#DDECF9"/>
<path d="M1876.32 646.849C1900.17 613.676 1888.55 587.654 1868.9 560.34C1832.35 509.568 1837.48 476.645 1887.03 437.967C1898.91 428.689 1905.13 416.345 1918.2 400.603C1918.76 426.312 1905.52 438.322 1893.08 450.874C1851.28 492.95 1849.65 506.295 1882.57 555.481C1899.98 581.482 1911.84 607.691 1896.08 638.738C1893.31 644.222 1889.91 648.934 1876.32 646.849Z" fill="#C2D5E0"/>
<path d="M1212.57 662.279C1199.83 661.611 1178.3 635.611 1181.34 624.414C1183.16 617.721 1188.37 618.242 1192.68 620.702C1203.84 627.083 1214.61 634.13 1225.54 640.928C1218.49 646.37 1215.09 654.063 1212.57 662.279Z" fill="#68304F"/>
<path d="M1174.98 1905.58C1157.72 1893.59 1138.61 1890.73 1118.24 1893.9C1112.57 1894.78 1104.25 1899.12 1103.04 1890.25C1101.98 1882.52 1111.38 1882.37 1116.91 1881.31C1129.79 1878.83 1142.8 1879.6 1155.6 1882.71C1161.29 1879.1 1164.08 1885.13 1168.27 1886.52C1184.68 1895.74 1185.28 1897.43 1174.98 1905.58Z" fill="#FBD66B"/>
<path d="M1545.99 1122.47C1535.15 1114.03 1522.3 1120.35 1510.69 1117.68C1505.5 1116.49 1498.83 1115.8 1498.91 1108.94C1498.98 1103.29 1505 1103 1509.5 1101.52C1524.01 1096.76 1538.94 1097.85 1553.8 1097.51C1554.76 1106.96 1553.57 1115.72 1545.99 1122.47Z" fill="#F0A89E"/>
<path d="M1992.33 387.175C2003.56 420.265 1988.33 435.57 1972.65 449.331C1928.27 488.28 1928.04 487.905 1947.78 544.994C1950.47 552.792 1952.26 560.965 1953.87 569.076C1954.22 570.828 1951.91 573.1 1950.8 575.102C1907.69 522.162 1908.34 490.177 1955.87 446.037C1971.67 431.379 1980.7 412.78 1992.33 387.175Z" fill="#C5D6DF"/>
<path d="M1181.34 1932.62C1164.56 1920.95 1145.82 1920.3 1126.49 1922.78C1122.45 1923.3 1117.39 1924.3 1116.51 1918.97C1115.63 1913.57 1120.97 1913.38 1124.76 1912.29C1143.23 1907.06 1161.12 1914.07 1179.32 1914.75C1183.34 1921.57 1199.27 1920.7 1192.16 1934.69C1187.99 1936.98 1184.3 1936.75 1181.34 1932.62Z" fill="#FBD053"/>
<path d="M1529.98 1151.35C1526.39 1147.49 1521.66 1147.16 1516.84 1146.99C1509.07 1146.72 1499.33 1145.37 1499.85 1136.59C1500.33 1128.44 1510.65 1127.62 1518.03 1126.83C1527.41 1125.83 1537.19 1127.5 1545.94 1122.49C1547.2 1135.75 1540.75 1144.76 1529.98 1151.35Z" fill="#EEA79E"/>
<path d="M1197.1 1967.13C1194.29 1965.76 1191.45 1964.38 1188.64 1963C1177.26 1954.08 1163.94 1952.93 1150.14 1952.79C1144.15 1952.72 1133.6 1956.96 1133.79 1947.34C1133.96 1939.46 1144.59 1941.96 1151.03 1941.3C1162.04 1940.15 1172.5 1943.36 1183.09 1945.51C1187.7 1944.99 1191.54 1946.43 1194.6 1949.91C1198.62 1955.2 1203.34 1960.38 1197.1 1967.13Z" fill="#FCD359"/>
<path d="M1500.85 1151.62C1509.86 1150.77 1518.84 1149.91 1526.83 1155.6C1524.51 1164.99 1522.2 1174.37 1519.89 1183.73C1513.72 1183.75 1507.57 1183.77 1501.42 1183.77C1491.35 1176.68 1489.35 1168.7 1498.66 1159.42C1499.39 1156.83 1500.12 1154.23 1500.85 1151.62Z" fill="#8A0900"/>
<path d="M1937.69 1786.02C1943.38 1784.77 1948.47 1777.29 1954.97 1784.31C1955.99 1788.98 1954.6 1793.07 1952.07 1796.91C1941.73 1809.13 1935.21 1823.18 1931.21 1838.65C1929.14 1846.59 1926.41 1856.35 1915.43 1852.97C1904.94 1849.76 1907.71 1839.92 1909.23 1831.98C1911.59 1819.76 1917.16 1808.79 1923.53 1798.22C1926.58 1792.19 1932.27 1789.25 1937.69 1786.02Z" fill="#FCCF49"/>
<path d="M1903.25 1790.59C1909.13 1788.27 1912.28 1777.35 1921.26 1784.96C1923.41 1790.69 1921.45 1795.74 1918.72 1800.68C1908.84 1813.21 1902.98 1827.56 1898.85 1842.88C1897.14 1849.2 1895.04 1857.89 1886.28 1856.23C1876.88 1854.41 1877.36 1845.24 1877.9 1837.82C1878.82 1825.35 1883.7 1814.09 1890.08 1803.45C1893.08 1797.76 1898.81 1794.84 1903.25 1790.59Z" fill="#FCD04D"/>
<path d="M1986.41 1789.44C1986.24 1791.8 1986.05 1794.18 1985.89 1796.53C1980.53 1814.25 1966.23 1827.35 1960.7 1845.09C1959.31 1849.6 1954.49 1852.97 1949.11 1851.2C1943.05 1849.2 1941.11 1843.8 1942.05 1837.92C1944.9 1819.84 1952.36 1804.04 1966.06 1791.49C1968.79 1789.63 1971.92 1789.05 1975.09 1788.48C1978.84 1788.82 1982.63 1789.13 1986.41 1789.44Z" fill="#FCD14F"/>
<path d="M833.687 1414.99C818.636 1408.36 808.108 1397.08 800.604 1382.69C802.042 1379.77 803.48 1376.83 804.919 1373.89C814.508 1387.59 824.097 1401.29 833.687 1414.99Z" fill="#FBBD83"/>
<path d="M1168.25 1886.52C1164.02 1885.25 1159.79 1883.98 1155.58 1882.71C1154.35 1871.22 1141.8 1864.65 1142.36 1852.39C1144.84 1852.12 1147.32 1851.85 1149.8 1851.6C1155.95 1863.23 1162.1 1874.89 1168.25 1886.52Z" fill="#B096A0"/>
<path d="M1903.25 1790.59C1902.98 1795.8 1899.83 1799.03 1895.75 1801.66C1885.66 1809.02 1875.44 1815.19 1863.25 1805.73C1863.41 1804.08 1863.58 1802.43 1863.75 1800.79C1876.9 1797.39 1890.08 1793.99 1903.25 1790.59Z" fill="#B7999A"/>
<path d="M1915.76 1796.26C1917.57 1792.49 1919.41 1788.71 1921.24 1784.94C1926.72 1785.29 1932.21 1785.65 1937.69 1786C1936.48 1790.69 1934 1794.53 1929.93 1797.26C1924.95 1800.66 1920.14 1801.58 1915.76 1796.26Z" fill="#C9AB9D"/>
<path d="M1975.07 1788.5C1972.82 1790.57 1970.56 1792.61 1968.31 1794.68C1961.75 1797.3 1955.16 1800.03 1949.7 1792.61C1951.45 1789.84 1953.2 1787.07 1954.97 1784.29C1961.6 1786.13 1969.11 1783.63 1975.07 1788.5Z" fill="#B69590"/>
<path d="M1194.6 1949.93C1190.16 1950.08 1185.99 1949.47 1183.09 1945.53C1182.51 1941.24 1181.93 1936.92 1181.34 1932.62C1184.95 1933.29 1188.58 1933.98 1192.18 1934.67C1192.99 1939.75 1193.81 1944.84 1194.6 1949.93Z" fill="#BC9B8C"/>
<path d="M1800.35 1657.12C1775.94 1691.95 1739.36 1711.23 1704.27 1732.46C1697.87 1736.34 1691.47 1740.17 1685.07 1744.03C1676.44 1736.36 1675.11 1721.89 1661.6 1718.74C1709.55 1702.04 1756.89 1683.92 1800.35 1657.12Z" fill="#110021"/>
<path d="M1249.45 1756C1214.86 1739.15 1186.37 1714.88 1162.25 1685.13C1156.87 1678.5 1153.03 1669.66 1142.55 1669.26C1147.76 1658.71 1160.93 1654.16 1163.37 1641.55C1188.51 1682.37 1215.7 1721.66 1249.45 1756Z" fill="#110021"/>
<path d="M1175.44 1484.11C1175.4 1482.83 1175.51 1481.58 1175.73 1480.33C1212.28 1447.7 1248.8 1415.07 1285.32 1382.46C1283.97 1381.06 1282.61 1379.67 1281.28 1378.27C1251.53 1418.8 1215.15 1453.04 1175.44 1484.11Z" fill="#110021"/>
<path d="M956.618 1229.96C970.147 1229.96 983.656 1229.96 1002.21 1229.96C993.85 1225.83 990.014 1223.91 986.157 1222.01C1023.47 1227.29 1060.75 1222.35 1098.04 1221.43C1051.66 1237 1004.46 1238.92 956.618 1229.96Z" fill="#F54C42"/>
<path d="M867.395 925.455C880.445 934.525 890.139 946.827 899.665 959.254C937.23 1008.25 983.968 1041.84 1047.4 1047.47C987.428 1055.02 938.231 1031.08 893.974 994.054C881.029 983.232 870.189 969.867 858.369 957.669C852.365 944.408 857.201 934.171 867.395 925.455Z" fill="#5E294B"/>
<path d="M867.396 925.455C864.394 936.193 861.371 946.931 858.37 957.69C855.576 963.132 852.804 968.574 850.01 974.016C827.246 968.199 788.722 924.371 787.033 902.415C785.866 886.965 792.62 883.67 817.511 887.611C837.148 896.285 853.637 909.066 867.396 925.455Z" fill="#8A0900"/>
<path d="M1498.66 1159.42C1497.14 1167.82 1497.31 1176.02 1501.42 1183.79C1436.71 1183.79 1372 1183.79 1307.29 1183.79C1349.38 1172.81 1392.66 1169.03 1435.65 1164.11C1456.49 1161.73 1477.4 1157.25 1498.66 1159.42Z" fill="#F9E2CA"/>
<path d="M1414.4 1138.57C1411.57 1138.63 1408.73 1138.69 1405.9 1138.78C1403.31 1136.15 1403.63 1133.54 1405.92 1130.94C1422.24 1126.12 1438.69 1121.68 1454.83 1116.32C1460.43 1114.47 1467.04 1111.46 1466.85 1103.92C1466.58 1093.57 1455.35 1104.83 1452.97 1097.12C1454.33 1089.32 1463.35 1089.28 1467.31 1083.9C1469.65 1080.73 1475.42 1075.62 1472.5 1074.16C1452.82 1064.34 1469.77 1058.46 1474.03 1050.81C1478.63 1042.51 1475.21 1038.9 1460.41 1036.28C1464.56 1025.83 1478.97 1025 1479.65 1011.96C1486.76 1044.18 1479.22 1073.99 1475.28 1103.89C1473.02 1120.95 1453.99 1121.28 1443.67 1130.52C1434.44 1135.11 1424.87 1138.53 1414.4 1138.57Z" fill="#C77690"/>
<path d="M1405.92 1130.94C1405.92 1133.54 1405.9 1136.17 1405.9 1138.78C1367.37 1150.98 1328.83 1163.15 1290.33 1175.43C1283.34 1177.66 1275.76 1178.62 1270.13 1184.11C1265.98 1182.71 1261.85 1181.33 1257.7 1179.94C1285.32 1162.67 1317.91 1160.02 1347.8 1149.45C1366.96 1142.68 1386.53 1137.07 1405.92 1130.94Z" fill="#CA7A92"/>
<path d="M817.531 887.611C808.838 889.404 797.122 882.649 792.015 894.367C787.137 905.543 793.37 915.968 799.791 924.35C814.175 943.136 828.288 962.548 850.03 974.016C850.552 978.457 850.093 982.669 846.945 986.172C827.725 962.736 800.354 946.306 788.325 916.656C780.237 896.702 782.968 887.841 801.125 879.688C806.587 882.315 812.048 884.963 817.531 887.611Z" fill="#5E294B"/>
<path d="M1414.4 1138.57C1422.95 1131.5 1431.81 1125.54 1443.67 1130.54C1442.07 1139.22 1446.2 1150.68 1433.77 1154.33C1420.39 1158.27 1419.95 1145.01 1414.4 1138.57Z" fill="#8A0900"/>
<path d="M1219.82 595.598C1207.02 595.244 1200.17 588.655 1200.15 575.123C1200.12 561.779 1206.44 554.648 1219.99 554.418C1234.48 554.168 1241.53 561.341 1241.23 575.811C1240.94 589.489 1233.48 595.515 1219.82 595.598Z" fill="#E98D90"/>
<path d="M1258.31 544.118C1261.83 533.651 1271.15 530.565 1276.69 524.143C1280.03 520.307 1283.99 520.974 1286.97 525.061C1289.95 529.106 1288.89 533.276 1285.45 536.028C1278.03 541.95 1269.94 546.641 1258.31 544.118Z" fill="#763C58"/>
<path d="M1168.35 579.96C1155.85 574.831 1147.36 563.718 1133.77 560.715C1151.47 556.503 1161.7 565.427 1168.35 579.96Z" fill="#C2718E"/>
<path d="M1283.13 595.223C1270.98 596.912 1263.75 592.512 1263.89 576.457C1273.63 580.94 1275.48 591.636 1283.13 595.223Z" fill="#C06E8E"/>
<path d="M1006.86 1797.8C1012.42 1793.63 1017.97 1789.44 1023.53 1785.27C1022.68 1806.39 1038.23 1810 1053.8 1813.75C1067.5 1817.05 1083.93 1814.4 1094.72 1833.85C1065.41 1821.97 1033.67 1826.49 1014.47 1799.53C1013.32 1797.97 1009.46 1798.35 1006.86 1797.8Z" fill="#B7A0AF"/>
<path d="M1949.7 1792.63C1955.91 1793.32 1962.1 1793.99 1968.31 1794.68C1959.45 1806.89 1951.43 1819.55 1948.15 1834.56C1947.07 1839.55 1943.63 1846.72 1951.32 1848.24C1957.87 1849.55 1956.78 1841.92 1957.99 1837.77C1962.87 1820.99 1969.9 1805.75 1985.91 1796.53C2005.46 1800.01 2024.28 1805.41 2042.38 1814.11C2058.14 1821.68 2056.39 1828.29 2045.76 1839.48C2019.32 1867.34 1986.53 1880.75 1949.24 1883.56C1925.93 1885.31 1903.15 1885.73 1883.86 1902.41C1874.69 1910.33 1862.02 1909.48 1850.41 1906.21C1825.35 1899.16 1803.06 1902.66 1784.68 1922.47C1781.61 1925.78 1778.07 1931.62 1773.61 1925.12C1770.9 1921.16 1766.56 1912.36 1772.71 1910.77C1804.98 1902.37 1807.63 1868.82 1828.02 1849.43C1814.3 1851.14 1813.13 1851.93 1805.25 1867.36C1799.35 1878.91 1794.62 1891.17 1782.7 1898.39C1771.9 1904.89 1764.31 1905.58 1759.97 1890.63C1753.72 1869.03 1745.82 1847.89 1738.61 1826.56C1747.34 1824.35 1756.97 1822.8 1764.75 1826.52C1796.14 1841.55 1822.8 1830.46 1848.95 1813.57C1853.49 1810.63 1858.45 1808.29 1863.23 1805.69C1874.63 1808.94 1884.51 1799.99 1895.73 1801.62C1890.12 1818.36 1879.26 1834.1 1886.47 1853.81C1896.52 1834.54 1897.33 1810.77 1915.76 1796.24C1920.47 1796.57 1925.2 1796.91 1929.91 1797.24C1923.95 1809.36 1916.74 1821.01 1914.88 1834.73C1914.13 1840.21 1909.65 1848.53 1918.11 1850.03C1925.62 1851.37 1923.39 1842.49 1924.62 1837.77C1929.16 1820.59 1934.54 1803.91 1949.7 1792.63Z" fill="#FDFCFC"/>
<path d="M1833.87 1961.94C1829.96 1964.52 1826.37 1968.3 1822.05 1969.45C1811.94 1972.11 1802.46 1987.06 1791.7 1975.64C1777.48 1960.52 1779.84 1938.9 1793.64 1924.8C1807.38 1910.75 1823.47 1906.04 1842.28 1911.19C1862.54 1916.74 1881.09 1915.23 1898.46 1901.7C1910.34 1892.44 1925.7 1893.34 1939.84 1892.42C1986.16 1889.42 2026.47 1874.18 2057.1 1837.73C2060.02 1834.27 2062.93 1827.85 2068.19 1831.46C2074.86 1836.02 2068.73 1841.63 2065.96 1845.32C2057.72 1856.31 2048.36 1866.9 2035.94 1872.91C1969.52 1904.95 1902.63 1936.02 1833.58 1962.17C1830.46 1954.1 1837.21 1949.85 1840.55 1944.3C1842.78 1940.59 1844.09 1936.75 1840.82 1933.1C1837.96 1929.91 1834.46 1928.45 1829.91 1929.64C1824.6 1931.02 1819.51 1932.75 1814.78 1935.54C1809.15 1938.88 1804.9 1943.78 1805.88 1950.35C1806.98 1957.89 1814.13 1955.79 1819.18 1956.31C1824.66 1956.83 1830.06 1957.19 1833.87 1961.94Z" fill="#FDFCFC"/>
<path d="M989.139 1814.9C1017.34 1824.35 1036.94 1839.71 1036.17 1873.49C1035.79 1889.59 1043.88 1904 1058.49 1912.9C1069.17 1919.4 1074.19 1929.23 1078.36 1940.44C1096.33 1988.77 1122.64 2030.08 1174.09 2048.74C1181.36 2051.39 1182.05 2054.89 1179.57 2060.9C1167.23 2068.76 1158.97 2058.56 1149.86 2053.68C1142.94 2049.99 1136.88 2044.65 1130.46 2040.05C1076.46 1979.37 1023.01 1918.2 968.146 1858.33C954.325 1843.26 954.596 1834.63 972.191 1825.45C978.048 1822.39 981.446 1815.19 989.139 1814.9Z" fill="#FCFCFC"/>
<path d="M1833.87 1961.94C1831.16 1962.11 1828.43 1962.46 1825.72 1962.42C1815.88 1962.32 1803.92 1966.61 1798.56 1954.56C1794.22 1944.8 1801.67 1937.44 1808.92 1932.46C1819.55 1925.14 1831.25 1917.92 1844.61 1926.1C1853.45 1931.52 1852.74 1939.73 1847.3 1947.22C1843.36 1952.64 1838.21 1957.21 1833.6 1962.15C1833.58 1962.15 1833.87 1961.94 1833.87 1961.94Z" fill="#B8A0AF"/>
<path d="M990.536 1834.5C1003.54 1834.15 1022.39 1852.85 1023.31 1866.82C1023.97 1877.12 1019.28 1882.35 1009.07 1882.25C994.851 1882.12 977.527 1863.88 977.59 1849.37C977.611 1840.01 982.218 1834.73 990.536 1834.5Z" fill="#AF95A6"/>
<path d="M1819.09 1954.18C1814.05 1953.54 1806.44 1954.93 1807.75 1948.64C1810.11 1937.29 1820.05 1933.67 1830.79 1932.98C1835.42 1932.69 1842.38 1932.58 1841.36 1938.67C1839.36 1950.76 1828.62 1952.62 1819.09 1954.18Z" fill="#FCFBFC"/>
<path d="M994.204 1843.38C1004.54 1847.09 1012.05 1855.06 1014.55 1867.17C1015.47 1871.61 1013.26 1875.78 1007.92 1874.62C995.475 1871.91 988.116 1863.75 986.178 1851.18C985.49 1846.76 987.074 1843.07 994.204 1843.38Z" fill="#FAF9FA"/>
</svg>
