<svg width="449" height="371" viewBox="0 0 449 371" fill="none" xmlns="http://www.w3.org/2000/svg">
<path d="M135.52 3.9602C115.48 3.9602 95.4398 3.9602 75.3198 3.8802V153.86C75.3198 158.92 71.1898 162.66 66.2998 162.88C61.4298 163.1 57.2798 158.58 57.2798 153.86V3.9602C49.0498 3.9502 40.7998 3.9102 32.4498 3.7402C16.3498 3.7002 0.259766 3.7002 0.259766 3.7002C0.259766 3.7002 0.259766 23.0902 0.349766 49.5502C0.629766 94.3202 0.629765 138.87 1.24977 183.41C46.4198 187.8 92.8498 194.08 138.02 185.92C137.4 125.05 136.77 64.8202 135.52 3.9602Z" fill="black"/>
<path d="M256.62 31.4302C244.83 32.1202 233.02 33.0502 221.02 34.0102L220.98 2.2002C210.42 3.0602 199.65 3.34019 188.86 3.58019C177.9 4.55019 160.34 2.04019 160.34 5.18019C149.67 65.4102 158.46 125.01 157.83 185.24C202.38 175.2 245.67 157.01 292.09 154.5V30.2702C280.17 30.2702 268.41 30.7402 256.62 31.4302ZM223.29 138.12C218.42 138.34 214.28 133.82 214.27 129.1C214.25 107.86 213.05 86.6502 213.03 65.4102C213.02 60.3502 217.17 56.6102 222.05 56.3902C226.92 56.1702 231.06 60.6902 231.07 65.4102C231.09 86.6502 232.28 107.86 232.31 129.1C232.31 134.16 228.17 137.9 223.29 138.12Z" fill="black"/>
<path d="M388.07 108.13C388.05 109.11 388.04 110.1 388.05 111.08C388.06 114.82 388.19 118.56 388.2 122.3C388.22 127.36 384.05 131.1 379.18 131.32C374.3 131.54 370.18 127.02 370.16 122.3C370.13 113.6 369.76 105.05 371.1 96.41C371.69 92.58 376.22 89.77 379.8 89.79C402.28 89.9 423.43 96.08 445.72 96V3.92C400.55 3.92 355.37 0.16 309.99 0C309.99 0 309.99 16.58 310.02 38.14C310.11 57.73 310.16 77.09 310.18 96.42C310.19 106.08 310.2 115.74 310.2 125.41C310.2 135.08 310.2 144.79 310.21 154.53C321.66 154.96 333.03 156.02 344.35 157.45C378.32 161.74 411.84 169.39 445.72 174.57C445.72 153.73 452.12 128.62 444.24 114.02C425.13 113.87 406.86 109.35 388.07 108.13ZM368.31 28.32C368.95 23.29 371.93 19.54 377.33 19.3C381.77 19.1 386.95 23.62 386.35 28.32C385.69 33.49 385.44 38.7 385.49 43.91C385.52 46.66 385.63 49.4 385.85 52.14C385.9 52.76 385.96 53.38 386.02 54C386.06 54.35 386.14 55.06 386.15 55.23C386.29 56.18 386.46 57.13 386.64 58.07C387.56 62.87 385.35 67.79 380.34 69.17C375.91 70.39 370.16 67.66 369.24 62.87C367.08 51.57 366.85 39.71 368.31 28.32Z" fill="black"/>
<path d="M138.03 203.31C92.86 211.47 46.43 203.94 1.06 200.56C1.06 200.56 1.05 219.79 0.949999 244.83C-0.620001 286.13 1.26 327.54 0 368.95C19.83 368.37 40.2 369.41 60.1 369.56C59.76 368.61 59.62 367.61 59.75 366.6C65.23 324.79 56.12 282.96 57.28 241.08C57.42 236.02 61.3 232.28 66.3 232.06C71.08 231.85 75.45 236.36 75.32 241.08C74.16 282.96 83.28 324.79 77.79 366.6C77.65 367.66 77.4 368.66 77.06 369.58H136.14C135.52 314.36 136.77 258.52 138.03 203.31Z" fill="black"/>
<path d="M292.47 262.72C280.51 264.91 268.85 270.27 256.62 270.75C253.05 270.89 249.47 270.72 245.9 270.69C243.84 270.67 241.79 270.68 239.73 270.76C238.79 270.8 237.85 270.85 236.92 270.93C236.18 270.99 233.63 271.54 236.02 270.99C235.13 271.19 234.24 271.31 233.36 271.55C233.28 271.57 233.19 271.6 233.1 271.64C233.07 271.73 233.05 271.82 233.03 271.9C232.93 272.3 232.74 274.49 232.78 273.09C232.82 271.64 232.7 274.53 232.68 274.86C232.63 275.8 232.61 276.74 232.61 277.68C232.59 285.16 233.56 292.59 233.56 300.07C233.57 312.77 233.72 325.46 234.8 338.12C235.23 343.15 230.33 346.94 225.78 347.14C220.62 347.37 217.16 342.81 216.76 338.12C215.53 323.63 215.92 309.18 215.51 294.67C215.29 287.07 213.97 279.5 214.89 271.88C215.48 267.07 216.54 262.4 220.02 258.78C222.99 255.69 227.42 254.21 231.55 253.56C239.91 252.23 248.23 253.04 256.63 252.72C256.8 252.71 256.98 252.7 257.16 252.68C257.45 252.46 257.82 252.4 258.1 252.41C258.99 252.26 260.13 252.22 260.61 252.12C263.59 251.48 266.53 250.71 269.46 249.9C275.5 248.23 281.51 246.46 287.68 245.33C288.59 245.16 289.5 245.11 290.39 245.15C295.95 239.87 297.04 231.91 290.21 219.58C279.54 200.13 248.8 218.95 228.75 222.1L228.68 183C205.51 189.46 182.29 196.99 158.45 202.01C157.2 257.85 158.45 314.31 156.57 370.15C179.16 370.15 201.74 368.9 224.46 369.58C235.68 369.54 246.94 369.53 258.22 369.53C269.5 369.53 280.79 369.53 292.08 369.53C291.77 350.39 291.92 331.1 292.16 311.81C292.28 302.16 292.41 292.52 292.52 282.9C292.64 276.76 293.76 268.16 293.46 262.44C293.15 262.56 292.81 262.66 292.47 262.72Z" fill="black"/>
<path d="M445.72 191.98C411.84 186.8 378.31 179.16 344.38 174.86C333.07 173.43 321.71 172.37 310.29 171.94C310.29 171.94 310.3 177.25 310.32 186.32C310.2 217.07 310.2 247.19 310.21 277.92C310.21 288.12 310.2 298.32 310.2 308.51C310.2 328.89 310.2 349.25 310.2 369.53C332.79 369.53 355.37 369.53 377.96 369.57H424.54C437.24 369.57 445.71 369.57 445.71 369.57C445.71 369.57 445.71 350.23 445.71 324.43C445.72 280.44 445.72 235.89 445.72 191.98ZM386.97 331.31C386.97 336.37 382.84 340.11 377.95 340.33C373.08 340.55 368.93 336.03 368.93 331.31C368.94 292.76 370.15 254.23 370.17 215.68C370.17 210.62 374.3 206.88 379.19 206.66C384.06 206.44 388.21 210.96 388.21 215.68C388.19 254.23 386.98 292.77 386.97 331.31Z" fill="black"/>
</svg>
